<svg width="38" height="38" viewBox="0 0 38 38" fill="none" xmlns="http://www.w3.org/2000/svg">
<circle cx="19" cy="19" r="19" fill="white"/>
<path d="M14.3334 19C14.3334 19.3094 14.4563 19.6062 14.6751 19.825C14.8939 20.0438 15.1906 20.1667 15.5 20.1667H22.5C22.8095 20.1667 23.1062 20.0438 23.325 19.825C23.5438 19.6062 23.6667 19.3094 23.6667 19C23.6667 18.6906 23.5438 18.3939 23.325 18.1751C23.1062 17.9563 22.8095 17.8334 22.5 17.8334H15.5C15.1906 17.8334 14.8939 17.9563 14.6751 18.1751C14.4563 18.3939 14.3334 18.6906 14.3334 19ZM16.6667 22.5H13.1667C12.2384 22.5 11.3482 22.1313 10.6918 21.4749C10.0355 20.8185 9.66671 19.9283 9.66671 19C9.66671 18.0718 10.0355 17.1815 10.6918 16.5251C11.3482 15.8688 12.2384 15.5 13.1667 15.5H16.6667C16.9761 15.5 17.2729 15.3771 17.4917 15.1583C17.7105 14.9395 17.8334 14.6428 17.8334 14.3334C17.8334 14.0239 17.7105 13.7272 17.4917 13.5084C17.2729 13.2896 16.9761 13.1667 16.6667 13.1667H13.1667C11.6196 13.1667 10.1359 13.7813 9.04192 14.8752C7.94796 15.9692 7.33337 17.4529 7.33337 19C7.33337 20.5471 7.94796 22.0308 9.04192 23.1248C10.1359 24.2188 11.6196 24.8334 13.1667 24.8334H16.6667C16.9761 24.8334 17.2729 24.7104 17.4917 24.4916C17.7105 24.2729 17.8334 23.9761 17.8334 23.6667C17.8334 23.3573 17.7105 23.0605 17.4917 22.8417C17.2729 22.6229 16.9761 22.5 16.6667 22.5ZM24.8334 13.1667H21.3334C21.024 13.1667 20.7272 13.2896 20.5084 13.5084C20.2896 13.7272 20.1667 14.0239 20.1667 14.3334C20.1667 14.6428 20.2896 14.9395 20.5084 15.1583C20.7272 15.3771 21.024 15.5 21.3334 15.5H24.8334C25.7616 15.5 26.6519 15.8688 27.3082 16.5251C27.9646 17.1815 28.3334 18.0718 28.3334 19C28.3334 19.9283 27.9646 20.8185 27.3082 21.4749C26.6519 22.1313 25.7616 22.5 24.8334 22.5H21.3334C21.024 22.5 20.7272 22.6229 20.5084 22.8417C20.2896 23.0605 20.1667 23.3573 20.1667 23.6667C20.1667 23.9761 20.2896 24.2729 20.5084 24.4916C20.7272 24.7104 21.024 24.8334 21.3334 24.8334H24.8334C26.3805 24.8334 27.8642 24.2188 28.9582 23.1248C30.0521 22.0308 30.6667 20.5471 30.6667 19C30.6667 17.4529 30.0521 15.9692 28.9582 14.8752C27.8642 13.7813 26.3805 13.1667 24.8334 13.1667V13.1667Z" fill="#3D3D3D"/>
</svg>
