<svg width="40" height="40" viewBox="0 0 40 40" fill="none" xmlns="http://www.w3.org/2000/svg">
<circle cx="20" cy="20" r="20" fill="url(#paint0_linear_152_11569)"/>
<path d="M13.517 29V11.5455H20.5057C21.7898 11.5455 22.8608 11.7358 23.7188 12.1165C24.5767 12.4972 25.2216 13.0256 25.6534 13.7017C26.0852 14.3722 26.3011 15.1449 26.3011 16.0199C26.3011 16.7017 26.1648 17.3011 25.892 17.8182C25.6193 18.3295 25.2443 18.75 24.767 19.0795C24.2955 19.4034 23.7557 19.6335 23.1477 19.7699V19.9403C23.8125 19.9687 24.4347 20.1562 25.0142 20.5028C25.5994 20.8494 26.0739 21.3352 26.4375 21.9602C26.8011 22.5795 26.983 23.3182 26.983 24.1761C26.983 25.1023 26.7528 25.929 26.2926 26.6562C25.8381 27.3778 25.1648 27.9489 24.2727 28.3693C23.3807 28.7898 22.2813 29 20.9744 29H13.517ZM17.2074 25.983H20.2159C21.2443 25.983 21.9943 25.7869 22.4659 25.3949C22.9375 24.9972 23.1733 24.4687 23.1733 23.8097C23.1733 23.3267 23.0568 22.9006 22.8239 22.5312C22.5909 22.1619 22.2585 21.8722 21.8267 21.6619C21.4006 21.4517 20.892 21.3466 20.3011 21.3466H17.2074V25.983ZM17.2074 18.8494H19.9432C20.4489 18.8494 20.8977 18.7614 21.2898 18.5852C21.6875 18.4034 22 18.1477 22.2273 17.8182C22.4602 17.4886 22.5767 17.0938 22.5767 16.6335C22.5767 16.0028 22.3523 15.4943 21.9034 15.108C21.4602 14.7216 20.8295 14.5284 20.0114 14.5284H17.2074V18.8494Z" fill="white"/>
<defs>
<linearGradient id="paint0_linear_152_11569" x1="0" y1="0" x2="40" y2="40" gradientUnits="userSpaceOnUse">
<stop stop-color="#FFA654"/>
<stop offset="1" stop-color="#19007E"/>
</linearGradient>
</defs>
</svg>
